<svg width="89" height="81" viewBox="0 0 89 81" fill="none" xmlns="http://www.w3.org/2000/svg">
<path d="M83.551 0H5.44898C2.44441 0 0 2.22469 0 4.95918V76.0408C0 78.7753 2.44441 81 5.44898 81H83.551C86.5556 81 89 78.7753 89 76.0408V4.95918C89 2.22469 86.5556 0 83.551 0ZM85.3673 76.0408C85.3673 76.9523 84.5525 77.6939 83.551 77.6939H5.44898C4.44746 77.6939 3.63265 76.9523 3.63265 76.0408V4.95918C3.63265 4.04769 4.44746 3.30612 5.44898 3.30612H83.551C84.5525 3.30612 85.3673 4.04769 85.3673 4.95918V76.0408Z" fill="white"/>
<path d="M62.6632 29.7551H53.5816V21.4956C53.5954 21.4931 53.609 21.4911 53.6214 21.4898H60.8469C61.8501 21.4898 62.6632 20.7497 62.6632 19.8367V8.26531C62.6632 7.35248 61.8501 6.61224 60.8469 6.61224H49.949C42.4534 6.61224 38.8785 10.2554 37.1994 13.3118C35.4385 16.5167 35.4184 19.7027 35.4184 19.8367V29.7551H26.3367C25.3336 29.7551 24.5204 30.4952 24.5204 31.4082V44.6327C24.5204 45.5456 25.3336 46.2857 26.3367 46.2857H33.602V71.9082C33.602 72.8212 34.4152 73.5612 35.4184 73.5612H51.7653C52.7685 73.5612 53.5816 72.8212 53.5816 71.9082V44.6327H60.8469C61.7509 44.6327 62.5172 44.0278 62.6449 43.2133L64.4612 31.6419C64.5357 31.1675 64.3804 30.6871 64.0353 30.3251C63.6904 29.9631 63.1898 29.7551 62.6632 29.7551ZM59.2716 41.3265H51.7653C50.7621 41.3265 49.949 42.0666 49.949 42.9796V70.2551H37.2347V44.6327C37.2347 43.7198 36.4215 42.9796 35.4184 42.9796H28.1531V33.0612H37.2347C38.2378 33.0612 39.051 32.3212 39.051 31.4082V19.8419C39.0512 19.8157 39.0853 17.2102 40.4999 14.6977C42.2859 11.5265 45.465 9.91837 49.949 9.91837H59.0306V18.1837H53.5816C51.8207 18.1837 49.949 19.3423 49.949 21.4898V31.4082C49.949 32.3212 50.7621 33.0612 51.7653 33.0612H60.569L59.2716 41.3265Z" fill="white"/>
</svg>
