<svg width="186" height="33" viewBox="0 0 186 33" fill="none" xmlns="http://www.w3.org/2000/svg">
<path d="M4.88637 2.90909H14.7159L18.75 19.3864H19.0909L28.5796 2.90909H38.4091L33.5796 32H25.8523L28.6364 15.1818H28.4091L19.2046 31.7727H14.5455L10.8523 15.0682H10.625L7.7841 32H0.0568237L4.88637 2.90909Z" fill="#FDFDFD"/>
<path d="M37.4361 32L41.0724 10.1818H48.6861L48.0043 14.3295H48.2315C48.8849 12.7955 49.7041 11.6733 50.6889 10.9631C51.6738 10.2528 52.7486 9.89773 53.9134 9.89773C54.2543 9.89773 54.581 9.92614 54.8935 9.98296C55.2154 10.0303 55.5327 10.0966 55.8452 10.1818L54.7088 16.8864C54.3395 16.7443 53.8802 16.6449 53.331 16.5881C52.7817 16.5218 52.294 16.4886 51.8679 16.4886C51.1103 16.4886 50.4001 16.6638 49.7372 17.0142C49.0838 17.3551 48.5251 17.8381 48.0611 18.4631C47.6065 19.0786 47.3035 19.803 47.152 20.6364L45.277 32H37.4361Z" fill="#FDFDFD"/>
<path d="M56.7117 32.4545C55.6037 32.4545 54.6993 32.071 53.9986 31.304C53.3073 30.5275 53.0185 29.5852 53.1321 28.4773C53.2457 27.3977 53.7334 26.4744 54.5952 25.7074C55.4664 24.9403 56.456 24.5568 57.5639 24.5568C58.6151 24.5568 59.491 24.9403 60.1918 25.7074C60.902 26.4744 61.2003 27.3977 61.0867 28.4773C61.0109 29.2159 60.7505 29.8883 60.3054 30.4943C59.8698 31.0909 59.33 31.5691 58.6861 31.929C58.0516 32.2794 57.3935 32.4545 56.7117 32.4545Z" fill="#FDFDFD"/>
<path d="M69.4957 2.90909H79.3253L83.3594 19.3864H83.7003L93.1889 2.90909H103.018L98.1889 32H90.4617L93.2458 15.1818H93.0185L83.8139 31.7727H79.1548L75.4617 15.0682H75.2344L72.3935 32H64.6662L69.4957 2.90909Z" fill="#FDFDFD"/>
<path d="M112.5 32.3977C110.133 32.3977 108.182 31.929 106.648 30.9915C105.123 30.0445 104.053 28.7282 103.438 27.0426C102.822 25.3475 102.699 23.3826 103.068 21.1477C103.438 18.9129 104.209 16.9526 105.384 15.267C106.558 13.572 108.068 12.2557 109.915 11.3182C111.761 10.3712 113.873 9.89773 116.25 9.89773C118.608 9.89773 120.549 10.3712 122.074 11.3182C123.608 12.2557 124.683 13.572 125.298 15.267C125.923 16.9526 126.051 18.9129 125.682 21.1477C125.313 23.3826 124.536 25.3475 123.352 27.0426C122.169 28.7282 120.653 30.0445 118.807 30.9915C116.97 31.929 114.867 32.3977 112.5 32.3977ZM113.466 26.6023C114.148 26.6023 114.768 26.3797 115.327 25.9347C115.895 25.4896 116.378 24.8551 116.776 24.0312C117.183 23.2074 117.481 22.2273 117.67 21.0909C117.86 19.9451 117.888 18.965 117.756 18.1506C117.623 17.3267 117.348 16.6922 116.932 16.2472C116.515 15.8021 115.966 15.5795 115.284 15.5795C114.602 15.5795 113.977 15.8021 113.409 16.2472C112.841 16.6922 112.358 17.3267 111.96 18.1506C111.563 18.965 111.269 19.9451 111.08 21.0909C110.89 22.2273 110.857 23.2074 110.98 24.0312C111.113 24.8551 111.387 25.4896 111.804 25.9347C112.23 26.3797 112.784 26.6023 113.466 26.6023Z" fill="#FDFDFD"/>
<path d="M152.006 10.1818L141.04 32H131.95L128.256 10.1818H136.211L137.347 24.6136H137.575L143.484 10.1818H152.006Z" fill="#FDFDFD"/>
<path d="M150.6 32L154.237 10.1818H162.077L158.441 32H150.6ZM158.498 7.90909C157.437 7.90909 156.58 7.55871 155.927 6.85795C155.273 6.14773 155.032 5.30492 155.202 4.32955C155.373 3.33523 155.894 2.49242 156.765 1.80114C157.636 1.10038 158.602 0.75 159.663 0.75C160.733 0.75 161.585 1.10038 162.219 1.80114C162.854 2.49242 163.091 3.33523 162.93 4.32955C162.778 5.30492 162.267 6.14773 161.396 6.85795C160.534 7.55871 159.568 7.90909 158.498 7.90909Z" fill="#FDFDFD"/>
<path d="M172.834 32.3977C170.504 32.3977 168.572 31.9527 167.038 31.0625C165.504 30.1629 164.425 28.875 163.8 27.1989C163.175 25.5133 163.061 23.4962 163.459 21.1477C163.838 18.8939 164.619 16.9242 165.803 15.2386C166.996 13.553 168.497 12.2415 170.305 11.304C172.124 10.3665 174.16 9.89773 176.413 9.89773C178.061 9.89773 179.505 10.1534 180.746 10.6648C181.996 11.1761 183.014 11.9195 183.8 12.8949C184.586 13.8703 185.116 15.0492 185.391 16.4318C185.675 17.8049 185.675 19.358 185.391 21.0909L185.107 22.9091H165.618L166.3 18.5909H178.572C178.667 17.9659 178.606 17.4167 178.388 16.9432C178.179 16.4602 177.843 16.0862 177.379 15.821C176.925 15.5464 176.375 15.4091 175.732 15.4091C175.088 15.4091 174.482 15.5464 173.913 15.821C173.355 16.0956 172.876 16.4792 172.479 16.9716C172.09 17.464 171.83 18.0417 171.697 18.7045L170.845 23.25C170.732 23.9508 170.774 24.5758 170.973 25.125C171.172 25.6742 171.518 26.1051 172.01 26.4176C172.502 26.7301 173.137 26.8864 173.913 26.8864C174.444 26.8864 174.946 26.8153 175.419 26.6733C175.902 26.5218 176.328 26.304 176.697 26.0199C177.076 25.7263 177.379 25.3712 177.607 24.9545H184.766C184.254 26.4697 183.445 27.786 182.337 28.9034C181.238 30.0114 179.884 30.8731 178.274 31.4886C176.674 32.0947 174.86 32.3977 172.834 32.3977Z" fill="#FDFDFD"/>
</svg>
