<svg width="84" height="75" viewBox="0 0 84 75" fill="none" xmlns="http://www.w3.org/2000/svg">
<g clip-path="url(#clip0_4_94)">
<path d="M83.3062 14.1781C82.6631 13.4942 81.6815 13.1589 80.7191 13.2468C81.1038 12.5356 81.4334 11.7979 81.7061 11.0362C82.08 9.99216 81.6859 8.83215 80.7266 8.15055C79.767 7.46764 78.4129 7.38414 77.356 7.94313C74.9347 9.22531 72.3358 10.1824 69.6192 10.793C66.1682 8.07204 61.6271 6.52618 57.0159 6.52618C46.5461 6.52618 38.0281 14.1312 38.0281 23.479C38.0281 23.5836 38.0291 23.6882 38.0312 23.7928C27.3998 22.5047 17.5314 17.5859 10.7158 10.1211C10.0981 9.4446 9.14831 9.08117 8.1782 9.15178C7.20597 9.21974 6.33233 9.70944 5.84064 10.4619C4.15768 13.0405 3.26813 15.9884 3.26813 18.9872C3.26813 21.6318 3.96015 24.2226 5.26067 26.5561C5.04411 26.6136 4.83378 26.6932 4.63428 26.7954C3.73571 27.2551 3.16313 28.1148 3.1395 29.0365C3.13737 29.1172 3.13721 29.1979 3.13721 29.2795C3.13721 34.0956 5.47806 38.679 9.41868 41.8674C8.78852 42.5591 8.58656 43.5017 8.8927 44.3541C10.5245 48.9029 14.252 52.596 19.0157 54.5679C15.2162 56.126 11.0547 56.9386 6.7963 56.9386C5.63375 56.9386 4.46595 56.8776 3.32686 56.7572C1.94234 56.6102 0.646734 57.3263 0.17653 58.4989C-0.293182 59.6708 0.198186 60.9583 1.37124 61.6298C9.19244 66.1072 18.2357 68.4738 27.5235 68.4738C45.7762 68.4738 57.2064 60.7765 63.5808 54.3189C71.5112 46.2862 76.0594 35.65 76.0594 25.1375C76.0594 24.9522 76.0581 24.7659 76.0554 24.5792C78.939 22.539 81.4413 20.1144 83.5016 17.3627C84.2331 16.3858 84.1523 15.0758 83.3062 14.1781ZM73.3576 22.6653C72.9236 22.9572 72.6754 23.4192 72.692 23.904C72.7061 24.314 72.7131 24.7291 72.7131 25.1381C72.7131 34.9331 68.4695 44.8492 61.0704 52.3437C55.1519 58.339 44.5273 65.4857 27.5237 65.4857C19.4067 65.4857 11.4898 63.5437 4.52682 59.8573C5.28085 59.9036 6.03981 59.9269 6.79696 59.9269C12.9421 59.9269 18.911 58.4053 24.0585 55.5268C24.633 55.2052 24.9338 54.6058 24.8198 54.009C24.7054 53.4121 24.1991 52.9359 23.5374 52.8029C18.3562 51.7623 14.0951 48.401 12.2814 43.9666C12.5605 44.0044 12.8412 44.0359 13.1206 44.061C13.8999 44.1292 14.6303 43.7071 14.8759 43.0423C15.1215 42.3774 14.8172 41.6495 14.1439 41.2909C9.54025 38.8397 6.63585 34.4068 6.49016 29.6544C7.14395 29.9492 7.82251 30.206 8.51486 30.4202C9.22804 30.6406 10.0182 30.4079 10.4439 29.8515C10.87 29.2953 10.8262 28.5535 10.3371 28.0402C7.93703 25.5211 6.61534 22.3062 6.61534 18.9876C6.61534 16.6779 7.25518 14.4057 8.47023 12.3857C16.2624 20.7122 27.6123 26.0179 39.6975 26.9652C40.2021 27.0043 40.6991 26.8383 41.05 26.5124C41.4009 26.1865 41.5676 25.736 41.5035 25.2878C41.4183 24.6923 41.3752 24.0838 41.3752 23.4796C41.3752 15.7795 48.3918 9.51491 57.0163 9.51491C61.0727 9.51491 65.0639 10.9672 67.966 13.499C68.3696 13.851 68.9446 13.9982 69.4955 13.8894C72.5386 13.2907 75.4576 12.3072 78.1868 10.9616C77.5225 12.4801 76.5703 13.8702 75.348 15.1043C74.8548 15.6022 74.7894 16.3313 75.1875 16.893C75.5856 17.4548 76.3519 17.7144 77.0666 17.5294C78.0539 17.2745 79.0328 16.9755 79.99 16.637C78.1187 18.9359 75.8922 20.9602 73.3576 22.6653Z" fill="white"/>
<path d="M14.7575 21.3624C14.4042 21.1273 14.0523 20.8852 13.7112 20.6432C12.9879 20.1296 11.9351 20.2369 11.36 20.8829C10.785 21.5287 10.9051 22.4686 11.6285 22.9821C11.9961 23.2432 12.3756 23.5042 12.7562 23.7576C13.0568 23.9577 13.4075 24.0543 13.7555 24.0543C14.2658 24.0543 14.7698 23.8465 15.0981 23.4534C15.6506 22.7918 15.4982 21.856 14.7575 21.3624Z" fill="white"/>
<path d="M36.4758 28.7694C30.4522 28.2973 24.4759 26.6308 19.1927 23.9501C18.3892 23.5424 17.3679 23.7934 16.9111 24.5108C16.4545 25.2283 16.7356 26.1402 17.5391 26.548C23.237 29.4393 29.6841 31.2368 36.1831 31.7463C36.233 31.7501 36.2823 31.7522 36.3314 31.7522C37.1893 31.7522 37.9198 31.1662 37.9963 30.3885C38.077 29.5665 37.3963 28.8417 36.4758 28.7694Z" fill="white"/>
</g>
<defs>
<clipPath id="clip0_4_94">
<rect width="84" height="75" fill="white"/>
</clipPath>
</defs>
</svg>
