<svg width="86" height="66" viewBox="0 0 86 66" fill="none" xmlns="http://www.w3.org/2000/svg">
<path d="M84.2449 0.346939H1.7551C0.785935 0.346939 0 1.26082 0 2.38776V63.6123C0 64.7392 0.785935 65.6531 1.7551 65.6531H84.2449C85.2141 65.6531 86 64.7392 86 63.6123V2.38776C86 1.26082 85.2141 0.346939 84.2449 0.346939ZM77.8697 4.42857L43 28.5837L8.13033 4.42857H77.8697ZM82.4898 61.5714H3.5102V5.97898L29.9784 24.3141L11.1963 41.6039L13.3751 44.8043L33.2053 26.5498L42.1016 32.7125C42.3785 32.9041 42.6892 33 43 33C43.3108 33 43.6215 32.9041 43.8983 32.7125L52.7945 26.5498L72.6247 44.8043L74.8035 41.6039L56.0216 24.3143L82.4898 5.97898V61.5714Z" fill="white"/>
</svg>
