<svg width="91" height="88" viewBox="0 0 91 88" fill="none" xmlns="http://www.w3.org/2000/svg">
<path d="M90.0936 0H0.906375C0.405693 0 0 0.392494 0 0.876494V87.1235C0 87.6075 0.405693 88 0.906375 88H90.0936C90.5943 88 91 87.6075 91 87.1235V0.876494C91 0.392494 90.5943 0 90.0936 0ZM89.1873 86.247H1.81275V1.75299H89.1873V86.247Z" fill="white"/>
<path d="M13.1687 78.7781C15.2485 80.6091 18.0243 81.6472 20.9842 81.7017C29.118 81.8516 37.3087 81.9266 45.4996 81.9266C53.6905 81.9266 61.8811 81.8516 70.0147 81.7017C72.9753 81.6472 75.7513 80.6089 77.8315 78.7781C79.94 76.9224 81.1011 74.4626 81.1011 71.8517V61.9141C81.1011 61.4301 80.6954 61.0376 80.1947 61.0376C79.6941 61.0376 79.2884 61.4301 79.2884 61.9141V71.8517C79.2884 76.2222 75.1127 79.8546 69.9801 79.9491C53.7366 80.2485 37.2636 80.2485 21.0188 79.9491C15.8869 79.8546 11.712 76.2222 11.712 71.8517V49.8944C11.712 45.5251 15.8869 41.8938 21.019 41.7993C37.2636 41.4999 53.7366 41.4999 69.9803 41.7993C72.9503 41.854 75.6674 43.0553 77.4352 45.0953C78.6476 46.4942 79.2884 48.1535 79.2884 49.8943C79.2884 50.3783 79.6941 50.7707 80.1947 50.7707C80.6954 50.7707 81.1011 50.3783 81.1011 49.8943C81.1011 47.7367 80.3138 45.6878 78.8245 43.9693C76.7199 41.5407 73.5088 40.111 70.0147 40.0467C53.7482 39.7467 37.2518 39.7467 20.9844 40.0467C18.0245 40.1012 15.2488 41.1393 13.1687 42.97C11.0603 44.8253 9.89924 47.2846 9.89924 49.8944V71.8517C9.89924 74.4624 11.0603 76.9224 13.1687 78.7781Z" fill="white"/>
<path d="M22.3071 76.2695H26.8524C27.3531 76.2695 27.7588 75.877 27.7588 75.393V51.4172H31.5661C32.0668 51.4172 32.4725 51.0248 32.4725 50.5408V46.3937C32.4725 45.9097 32.0668 45.5172 31.5661 45.5172H17.6031C17.1024 45.5172 16.6967 45.9097 16.6967 46.3937V50.5499C16.6967 51.0339 17.1024 51.4264 17.6031 51.4264H21.4008V75.393C21.4008 75.877 21.8065 76.2695 22.3071 76.2695ZM18.5094 49.6734V47.2702H30.6598V49.6643H26.8524C26.3518 49.6643 25.9461 50.0568 25.9461 50.5408V74.5165H23.2135V50.5499C23.2135 50.0659 22.8078 49.6734 22.3071 49.6734H18.5094Z" fill="white"/>
<path d="M39.0914 76.2715H43.1148C43.6155 76.2715 44.0212 75.879 44.0212 75.395V53.9757C44.0212 53.7428 43.9253 53.5196 43.7549 53.3552C43.585 53.1913 43.3548 53.0992 43.1148 53.0992C43.1141 53.0992 43.1133 53.0992 43.1126 53.0992L39.0867 53.1085C38.5869 53.1096 38.1825 53.5017 38.1825 53.985V68.6249C37.7307 69.1557 37.2745 69.4907 36.7569 69.6732C36.6172 69.7544 36.5465 69.7167 36.5448 69.56C36.5051 69.3717 36.5019 69.1489 36.5019 68.8768C36.5001 64.8869 36.4861 54.1516 36.4752 53.9605C36.4491 53.4958 36.0516 53.1318 35.5703 53.1318H31.5567C31.056 53.1318 30.6503 53.5243 30.6503 54.0083V54.187C30.6492 57.7443 30.6465 69.5433 30.6549 72.022C30.6568 72.6829 30.7107 73.6716 31.1499 74.6203C31.6403 75.6863 32.5059 76.347 33.6481 76.5304C33.8993 76.5723 34.1526 76.5931 34.4071 76.5931C34.9284 76.5931 35.4557 76.5057 35.9829 76.3305C36.7636 76.0701 37.4848 75.6797 38.185 75.1324V75.395C38.185 75.879 38.5907 76.2715 39.0914 76.2715ZM38.1094 72.7716C37.2123 73.75 36.3485 74.3544 35.393 74.6733C34.8943 74.8386 34.4241 74.881 33.9502 74.8021C33.403 74.7141 33.05 74.4385 32.8051 73.9062C32.5742 73.4073 32.4701 72.8246 32.4674 72.0168C32.4596 69.6843 32.4614 59.0796 32.4627 54.8852V54.885H34.6683C34.6759 57.3229 34.6868 64.4058 34.6889 68.8775C34.6889 69.1549 34.6889 69.5346 34.7685 69.9106C34.8934 70.5059 35.2282 70.9776 35.711 71.2388C36.1946 71.5004 36.7868 71.5291 37.378 71.3203C38.2615 71.0088 39.0301 70.4337 39.7184 69.574C39.9949 69.2406 39.9949 68.8444 39.9949 68.6318V54.8598L42.2081 54.8547V74.5188H39.9974V73.0376C39.9974 72.678 39.7703 72.3548 39.4246 72.2226C39.0791 72.0902 38.6848 72.1756 38.4303 72.4377L38.3246 72.5462C38.2314 72.6416 38.1665 72.7083 38.1094 72.7716Z" fill="white"/>
<path d="M51.1775 45.5148H47.1454C46.6447 45.5148 46.2391 45.9072 46.2391 46.3912V75.3906C46.2391 75.8746 46.6447 76.2671 47.1454 76.2671H51.1775C51.5673 76.2671 51.8996 76.029 52.0275 75.6953C52.9058 76.2573 53.897 76.5456 54.9887 76.5547C55.0102 76.5551 55.0318 76.5551 55.0532 76.5551C57.1284 76.5551 58.6296 75.5112 59.2836 73.6101C59.2838 73.6097 59.2838 73.6095 59.284 73.6092C59.539 72.8652 59.6592 72.0681 59.6625 71.0989C59.6674 66.7177 59.6666 62.7394 59.6599 58.9384C59.6599 57.4843 59.429 56.331 58.933 55.3085C57.9884 53.3641 55.9398 52.4557 53.7114 52.9944C53.1357 53.1353 52.5918 53.3734 52.0839 53.7063V46.3912C52.0839 45.9072 51.6782 45.5148 51.1775 45.5148ZM52.2862 55.8556C52.8532 55.243 53.4647 54.8629 54.1532 54.6945C55.2254 54.4352 56.6129 54.6564 57.2916 56.0534C57.6703 56.8342 57.8466 57.751 57.8466 58.9398C57.8533 62.7408 57.8541 66.7173 57.8492 71.0952C57.8466 71.8709 57.7558 72.4943 57.5631 73.0567C57.1547 74.2445 56.3172 74.811 55.0062 74.8017C53.9217 74.7926 53.0144 74.3898 52.2282 73.5652L51.8379 73.1631C51.6632 72.9832 51.4226 72.8868 51.1772 72.8868C51.0651 72.8868 50.9518 72.9068 50.8433 72.9483C50.4978 73.0805 50.2708 73.4036 50.2708 73.7631V74.5139H48.0514V47.2676H50.2708V55.9364C50.2708 56.3431 50.5599 56.6964 50.9694 56.7896C51.3793 56.8825 51.8008 56.6913 51.9882 56.3274C52.0591 56.1903 52.2068 55.9424 52.2862 55.8556Z" fill="white"/>
<path d="M73.7535 66.0649C74.25 66.0649 74.6541 65.6787 74.6599 65.1985C74.6615 65.0457 74.7039 61.4326 74.6716 59.7471C74.657 58.8618 74.5781 58.1007 74.4306 57.4193C73.936 55.1541 72.5772 53.6078 70.5023 52.9483C69.9096 52.7586 69.243 52.6408 68.5244 52.5982C66.1702 52.4519 64.2319 53.179 62.7713 54.7605C61.5497 56.0805 60.9544 57.7315 60.9511 59.8069L60.9475 61.2513C60.9405 63.9039 60.9332 66.647 60.9609 69.3477C60.9718 70.2529 61.0786 71.1313 61.2787 71.9593C61.7817 74.0376 62.9791 75.5024 64.8359 76.3125C65.698 76.6901 66.6205 76.8755 67.6697 76.8755C68.1468 76.8755 68.6501 76.8371 69.1857 76.7614C71.6904 76.4057 73.3676 75.0735 74.1702 72.8016C74.7306 71.2193 74.689 68.1218 74.6825 67.7738C74.6735 67.2961 74.2705 66.9133 73.7763 66.9133H69.6288C69.1281 66.9133 68.7224 67.3058 68.7224 67.7898V70.5402C68.7224 71.0158 68.3232 71.4029 67.8325 71.4029C67.3405 71.4029 66.9403 71.016 66.9403 70.5402V66.0649H73.7535ZM67.8322 73.1557C69.3224 73.1557 70.5348 71.9824 70.5348 70.5401V68.6661H72.8671C72.8451 69.777 72.7496 71.402 72.4548 72.2338C72.4547 72.234 72.4545 72.2343 72.4545 72.2345C71.8731 73.8798 70.7507 74.767 68.9222 75.0268C67.5673 75.219 66.5069 75.1203 65.5824 74.7151C64.2469 74.1325 63.4165 73.1003 63.0436 71.5599C62.8736 70.8565 62.7827 70.1053 62.7735 69.3289C62.7458 66.6405 62.753 63.9031 62.7601 61.2557L62.7637 59.8098C62.7662 58.161 63.1977 56.9279 64.1225 55.9287C65.1121 54.8573 66.3636 54.3326 67.9398 54.3326C68.0937 54.3326 68.2507 54.3375 68.4106 54.3475C68.9762 54.381 69.4883 54.4701 69.9344 54.6128C71.4029 55.0794 72.2933 56.1158 72.6564 57.7797C72.7797 58.3496 72.8462 59.0024 72.8591 59.7771C72.8814 60.9409 72.8667 63.1063 72.8556 64.3117H66.0335C65.5329 64.3117 65.1272 64.7042 65.1272 65.1882V70.5401C65.1272 71.9822 66.3406 73.1557 67.8322 73.1557Z" fill="white"/>
<path d="M66.0337 62.747H69.6286C70.1293 62.747 70.535 62.3547 70.535 61.8705V58.8662C70.535 57.424 69.3226 56.2506 67.8323 56.2506C66.3408 56.2506 65.1274 57.4239 65.1274 58.8662V61.8705C65.1274 62.3545 65.5331 62.747 66.0337 62.747ZM66.9401 58.8662C66.9401 58.3906 67.3404 58.0036 67.8323 58.0036C68.3231 58.0036 68.7222 58.3904 68.7222 58.8662V60.994H66.9401V58.8662Z" fill="white"/>
<path d="M50.3246 59.4657C50.2907 59.5595 50.2732 59.6582 50.2733 59.7576L50.2831 69.7244V70.0412C50.2831 70.2287 50.3453 70.4114 50.4606 70.5621C50.5967 70.7401 50.6196 70.7655 50.6397 70.7876C50.6444 70.7928 50.6495 70.7981 50.6544 70.8034C51.2274 71.4043 51.8457 71.7647 52.5474 71.9056C52.761 71.9477 52.9682 71.9682 53.1674 71.9682C54.3032 71.9682 55.1743 71.3012 55.4163 70.1867C55.479 69.9023 55.5107 69.6227 55.5107 69.3564L55.5134 67.5428C55.5171 65.1235 55.5191 63.9092 55.5022 60.7612C55.4991 60.1699 55.3129 59.5942 55.1576 59.2152C55.1366 59.164 55.111 59.1157 55.0815 59.0704C54.7323 58.3875 54.0687 57.9696 53.1938 57.8872C52.3555 57.8074 51.5901 58.074 50.8598 58.6979C50.5173 58.9866 50.3636 59.3586 50.3246 59.4657ZM53.018 59.6319C53.3833 59.6665 53.4424 59.809 53.4743 59.8856C53.4868 59.9157 53.5007 59.9448 53.5163 59.9729C53.6273 60.2697 53.6885 60.5494 53.6896 60.7703C53.7065 63.9124 53.7047 65.1247 53.7009 67.5402L53.6982 69.3554C53.6982 69.5 53.6797 69.6567 53.6429 69.8238C53.5959 70.0413 53.5372 70.3123 52.9132 70.1888C52.6306 70.132 52.3681 69.9833 52.0959 69.724L52.0863 59.9895C52.5104 59.6374 52.7952 59.6111 53.018 59.6319Z" fill="white"/>
<path d="M55.6267 37.4167C55.948 37.4167 56.2855 37.384 56.6364 37.318C57.6456 37.1271 58.5745 36.6883 59.4669 35.9799L59.4663 36.2451C59.4658 36.4779 59.5611 36.7013 59.7312 36.866C59.9012 37.0308 60.132 37.1234 60.3727 37.1234H64.5199C65.0206 37.1234 65.4263 36.7309 65.4263 36.2469L65.4276 14.604C65.4276 14.3715 65.332 14.1485 65.162 13.9841C64.9921 13.8199 64.7615 13.7275 64.5212 13.7275H60.3749C59.8742 13.7275 59.4685 14.12 59.4685 14.604L59.4687 29.4039C59.3971 29.4858 57.9795 30.8107 57.8936 30.3418C57.8644 30.1859 57.8497 30.018 57.8497 29.8427V14.604C57.8497 14.12 57.444 13.7275 56.9433 13.7275H52.8275C52.3268 13.7275 51.9211 14.12 51.9211 14.604V33.1159C51.9262 33.7171 52.033 34.3621 52.2298 34.9812C52.7285 36.5493 53.9655 37.4167 55.6267 37.4167ZM53.7337 15.4808H56.0364V29.843C56.0364 30.1225 56.0607 30.3951 56.1086 30.6506C56.2175 31.2451 56.5371 31.72 57.009 31.9878C57.4736 32.2516 58.0455 32.2909 58.6189 32.099C59.5053 31.8032 60.2917 31.2262 61.0213 30.3367C61.2894 30.0119 61.2842 29.635 61.2814 29.4325L61.2809 15.4806H63.6144L63.6132 35.3706H61.2805L61.2834 33.9231C61.2842 33.5694 61.0648 33.2498 60.7275 33.1131C60.3903 32.9763 60.0009 33.0491 59.7404 33.2977C59.5947 33.437 59.4551 33.5736 59.3191 33.7068C59.0374 33.9829 58.7711 34.2437 58.4983 34.4757C57.7832 35.0847 57.0604 35.4517 56.2889 35.5976C54.4341 35.9476 54.0792 34.8324 53.9625 34.466C53.8165 34.0071 53.7375 33.5352 53.7337 33.1087V15.4808Z" fill="white"/>
<path d="M27.0944 24.0172C27.1253 24.1148 27.1414 24.23 27.1414 24.3502L27.1388 36.242C27.1388 36.4744 27.2344 36.6974 27.4042 36.8618C27.5741 37.0263 27.8048 37.1186 28.0452 37.1186H32.3973C32.6376 37.1186 32.868 37.0263 33.0383 36.862C33.2083 36.6976 33.3036 36.4746 33.3036 36.2421L33.3015 24.3506C33.3015 24.2317 33.3181 24.1152 33.3486 24.0165C34.9697 18.8309 38.5958 7.20232 38.5958 7.20232C38.6786 6.93692 38.6266 6.64925 38.4557 6.42662C38.2845 6.20417 38.0148 6.07287 37.728 6.07287H33.0089C32.5883 6.07287 32.2231 6.35265 32.1266 6.74847C32.1266 6.74847 31.116 10.8981 30.2214 14.5619C29.3267 10.8981 28.316 6.74829 28.316 6.74829C28.2196 6.35247 27.8542 6.07269 27.4338 6.07269H22.7146C22.4279 6.07269 22.158 6.20399 21.987 6.42645C21.8161 6.6489 21.764 6.93674 21.8469 7.20214C21.8469 7.20214 25.4726 18.8309 27.0944 24.0172ZM26.7161 7.82551C27.1949 9.79043 28.5994 15.5536 29.3383 18.5675C29.4351 18.9628 29.8027 19.2418 30.2227 19.2418C30.6427 19.2418 31.0078 18.9628 31.1046 18.5675C31.8435 15.5534 33.2478 9.79026 33.7266 7.82551H36.508C35.5583 10.871 32.9273 19.3065 31.6125 23.5116C31.5315 23.7737 31.4887 24.0638 31.4887 24.3506L31.4907 35.3657H28.9518L28.9541 24.3502C28.9541 24.0555 28.9121 23.7723 28.8294 23.5088C27.515 19.306 24.8841 10.871 23.9346 7.82551H26.7161V7.82551Z" fill="white"/>
<path d="M43.4085 33.8025C44.853 33.8025 46.0282 32.6664 46.0282 31.27V19.5774C46.0282 18.1804 44.853 17.0439 43.4085 17.0439C41.9639 17.0439 40.7888 18.1804 40.7888 19.5774V31.27C40.7888 32.6664 41.9639 33.8025 43.4085 33.8025ZM42.6016 19.5774C42.6016 19.147 42.9636 18.7969 43.4085 18.7969C43.8535 18.7969 44.2155 19.147 44.2155 19.5774V31.27C44.2155 31.6998 43.8535 32.0495 43.4085 32.0495C42.9636 32.0495 42.6016 31.6998 42.6016 31.27V19.5774Z" fill="white"/>
<path d="M36.5637 19.8044V31.0426C36.5637 34.6918 39.6338 37.6608 43.4072 37.6608C47.1813 37.6608 50.2519 34.692 50.2519 31.0426V19.8044C50.2519 16.1545 47.1813 13.1853 43.4072 13.1853C39.6338 13.1853 36.5637 16.1547 36.5637 19.8044ZM43.4072 14.9384C46.182 14.9384 48.4392 17.1213 48.4392 19.8046V31.0428C48.4392 33.7256 46.182 35.908 43.4072 35.908C40.6331 35.908 38.3764 33.7256 38.3764 31.0428V19.8046C38.3764 17.1214 40.6331 14.9384 43.4072 14.9384Z" fill="white"/>
<path d="M8.88247 28.7483C9.38315 28.7483 9.78884 28.3558 9.78884 27.8718V8.0974C9.78884 7.6134 9.38315 7.2209 8.88247 7.2209C8.38179 7.2209 7.9761 7.6134 7.9761 8.0974V27.8718C7.9761 28.3558 8.38179 28.7483 8.88247 28.7483Z" fill="white"/>
<path d="M8.88247 36.8464C9.38315 36.8464 9.78884 36.4539 9.78884 35.9699V32.8862C9.78884 32.4021 9.38315 32.0097 8.88247 32.0097C8.38179 32.0097 7.9761 32.4022 7.9761 32.8862V35.9699C7.9761 36.4539 8.38179 36.8464 8.88247 36.8464Z" fill="white"/>
<path d="M80.1946 53.149C79.6939 53.149 79.2882 53.5415 79.2882 54.0255V57.8821C79.2882 58.3661 79.6939 58.7586 80.1946 58.7586C80.6951 58.7586 81.1009 58.3663 81.1009 57.8821V54.0255C81.1009 53.5415 80.6953 53.149 80.1946 53.149Z" fill="white"/>
</svg>
